<?xml version="1.0" standalone="no"?>
<!DOCTYPE svg PUBLIC "-//W3C//DTD SVG 20010904//EN"
 "http://www.w3.org/TR/2001/REC-SVG-20010904/DTD/svg10.dtd">
<svg version="1.0" xmlns="http://www.w3.org/2000/svg"
 width="500.000000pt" height="500.000000pt" viewBox="0 0 500.000000 500.000000"
 preserveAspectRatio="xMidYMid meet">
<metadata>
Created by potrace 1.15, written by Peter Selinger 2001-2017
</metadata>
<g transform="translate(0.000000,500.000000) scale(0.100000,-0.100000)"
fill="#000000" stroke="none">
<path d="M3461 4690 c-163 -44 -334 -153 -456 -290 -85 -97 -140 -190 -185
-315 -33 -96 -35 -106 -35 -235 0 -118 3 -144 24 -202 l24 -66 -28 -59 c-40
-81 -166 -204 -299 -292 -124 -82 -114 -82 -223 11 -157 134 -227 285 -243
523 -10 153 -31 221 -94 298 -35 43 -316 270 -724 584 l-73 56 -29 -28 c-17
-16 -30 -32 -30 -36 0 -4 176 -172 391 -374 l390 -368 -43 -44 -43 -43 -382
382 -383 382 -35 -34 -35 -34 382 -383 382 -383 -34 -35 -34 -35 -383 382
-383 383 -32 -33 -33 -32 380 -380 379 -380 -39 -40 c-21 -22 -42 -40 -46 -40
-5 0 -600 623 -701 734 l-37 41 -37 -37 -37 -36 244 -307 c134 -169 273 -344
309 -389 71 -89 145 -144 224 -169 28 -9 105 -21 170 -27 132 -11 223 -38 314
-92 61 -36 242 -207 242 -230 0 -7 -255 -267 -566 -578 -568 -567 -603 -606
-604 -673 0 -61 58 -150 122 -183 32 -17 105 -18 145 -3 15 5 280 262 588 569
l560 560 550 -550 c303 -303 564 -557 582 -565 73 -35 182 -7 221 57 29 48 35
75 27 126 -6 46 -17 57 -591 633 l-585 585 52 80 c71 106 218 252 287 284 48
22 57 23 95 12 163 -47 263 -51 405 -16 305 75 585 356 667 670 17 66 20 217
4 284 -37 159 -172 309 -334 370 -88 33 -244 37 -344 10z"/>
<path d="M2110 1236 l0 -846 135 0 135 0 0 345 0 345 67 0 c87 0 144 -26 169
-78 16 -32 20 -75 26 -297 3 -143 10 -272 13 -287 l7 -28 135 0 135 0 -7 22
c-4 13 -11 145 -15 293 -7 229 -11 280 -28 333 -23 73 -57 121 -106 152 l-35
21 58 58 c51 49 62 67 81 129 20 65 22 89 18 255 l-3 184 -35 69 c-40 79 -93
124 -173 150 -42 14 -103 18 -314 22 l-263 4 0 -846z m455 590 c60 -26 70 -59
70 -241 0 -175 -6 -201 -58 -239 -22 -16 -47 -22 -113 -25 l-84 -3 0 261 0
261 75 0 c43 0 90 -6 110 -14z"/>
</g>
</svg>
